<?xml version="1.0" standalone="no"?>
<!DOCTYPE svg PUBLIC "-//W3C//DTD SVG 20010904//EN"
 "http://www.w3.org/TR/2001/REC-SVG-20010904/DTD/svg10.dtd">
<svg version="1.0" xmlns="http://www.w3.org/2000/svg"
 width="1152.000000pt" height="896.000000pt" viewBox="0 0 1152.000000 896.000000"
 preserveAspectRatio="xMidYMid meet">
<metadata>
Created by potrace 1.16, written by Peter Selinger 2001-2019
</metadata>
<g transform="translate(0.000000,896.000000) scale(0.100000,-0.100000)"
fill="#000000" stroke="none">
<path d="M4092 6360 c-144 -35 -246 -258 -228 -497 3 -45 20 -134 36 -198 17
-64 30 -118 30 -121 0 -2 -11 -4 -25 -4 -67 0 -99 -45 -97 -138 1 -53 42 -162
76 -202 7 -8 21 -37 30 -65 10 -27 27 -65 37 -82 l18 -33 -29 -47 c-36 -59
-52 -131 -38 -182 14 -52 76 -129 144 -181 32 -24 62 -47 66 -50 4 -3 1 -27
-7 -54 -19 -63 -19 -185 0 -256 32 -119 106 -180 231 -188 l73 -5 5 -61 c3
-33 7 -102 9 -153 l4 -92 -26 -5 c-14 -3 -44 -8 -66 -12 -63 -9 -74 -14 -86
-35 -8 -16 -7 -26 6 -46 16 -23 21 -25 66 -20 29 4 49 2 49 -4 0 -5 -11 -27
-25 -48 -21 -31 -24 -43 -16 -64 8 -21 17 -27 41 -27 25 0 35 8 62 50 19 28
41 50 51 50 25 0 21 -13 -18 -60 -38 -46 -40 -52 -25 -81 7 -12 21 -19 40 -19
32 0 86 55 116 119 9 20 33 54 54 76 20 22 46 56 58 75 24 41 86 239 103 328
6 34 14 61 16 59 2 -3 15 -67 28 -143 27 -154 47 -405 32 -415 -5 -4 -44 -12
-86 -18 -97 -15 -125 -29 -129 -63 -5 -40 33 -61 87 -49 42 9 55 -1 22 -18
-10 -6 -24 -23 -30 -40 -25 -59 33 -97 75 -50 10 12 37 35 58 50 72 53 103 27
46 -38 -33 -37 -36 -51 -17 -75 35 -44 90 -11 142 84 15 29 45 68 66 85 25 22
47 57 68 107 44 105 91 296 98 395 6 79 8 87 40 118 18 19 33 40 33 48 0 22 8
18 36 -15 14 -16 47 -37 74 -47 37 -13 49 -23 53 -43 9 -41 49 -92 90 -113 83
-43 200 -14 299 72 l44 40 32 -65 c18 -35 51 -85 74 -110 47 -51 56 -87 57
-236 1 -65 -2 -77 -16 -82 -15 -4 -131 -26 -139 -26 -2 0 -8 -9 -14 -19 -13
-25 5 -67 32 -74 10 -3 33 -1 50 4 18 5 34 6 37 4 2 -3 -5 -23 -17 -44 -28
-49 -28 -87 -2 -101 31 -17 52 -4 85 50 27 47 43 59 58 44 3 -4 -9 -25 -28
-47 -19 -22 -35 -48 -35 -58 0 -23 27 -49 49 -49 24 0 92 75 111 120 8 19 27
45 42 58 53 45 102 181 155 432 l9 45 12 -40 c25 -89 52 -281 54 -397 l3 -122
-60 -12 c-33 -6 -77 -15 -97 -18 -47 -8 -61 -45 -32 -77 16 -18 26 -20 68 -14
l49 6 -31 -36 c-35 -40 -40 -66 -16 -89 24 -25 43 -19 90 24 55 50 90 68 106
52 8 -8 3 -21 -21 -47 -24 -28 -31 -45 -29 -68 2 -27 8 -33 31 -35 42 -5 72
20 103 85 15 32 47 80 70 106 24 26 52 72 63 102 33 87 71 246 85 352 10 75
19 107 39 136 24 35 47 95 61 159 l6 27 48 -24 c112 -58 246 -69 329 -27 156
80 164 277 20 454 -47 57 -47 58 -28 77 75 75 78 254 5 364 l-25 38 34 39 c81
95 129 245 129 401 0 115 -20 195 -62 242 -24 27 -32 50 -44 128 -34 212 -91
326 -191 385 -24 14 -48 37 -55 54 -20 47 -108 127 -175 159 -34 16 -69 40
-78 54 -24 37 -104 85 -152 93 -176 26 -178 -208 -4 -476 59 -91 61 -95 50
-131 -16 -52 -14 -147 4 -207 17 -58 91 -146 148 -177 32 -17 35 -22 30 -52
-10 -57 16 -120 72 -182 81 -87 105 -128 105 -176 0 -38 -21 -75 -42 -75 -4 0
-20 29 -36 64 -54 116 -143 159 -315 154 l-104 -3 -5 137 c-5 123 -8 143 -32
192 -47 96 -156 172 -279 195 -68 12 -136 2 -212 -33 -52 -23 -206 -123 -276
-177 l-36 -28 -17 62 c-10 34 -28 81 -42 104 -22 38 -25 55 -27 175 -3 152
-18 198 -83 263 -64 64 -112 80 -244 80 -102 0 -122 -3 -178 -27 -57 -23 -64
-24 -69 -10 -18 59 -69 146 -97 167 -70 54 -202 56 -319 6 -26 -11 -47 -16
-47 -11 0 4 -21 29 -46 54 -78 79 -203 97 -332 48 l-50 -19 -21 28 c-47 64
-136 97 -209 79z m130 -119 c32 -28 33 -30 19 -63 -62 -153 -49 -283 32 -322
101 -47 140 43 101 231 -8 41 -12 79 -7 83 4 5 32 15 62 24 109 32 194 13 237
-52 20 -28 21 -41 17 -110 -5 -65 -3 -81 11 -95 42 -42 80 -7 93 83 l8 55 60
24 c76 30 168 33 207 8 60 -41 81 -132 63 -274 -6 -46 -4 -53 14 -63 31 -16
58 3 72 53 17 57 30 70 100 101 106 48 250 45 322 -6 16 -12 38 -41 49 -66 21
-48 37 -195 22 -205 -5 -3 -31 0 -56 5 -85 20 -181 -29 -238 -119 -55 -86 -35
-171 51 -218 43 -23 60 -27 109 -23 75 5 119 38 156 115 l28 57 15 -35 c19
-44 20 -189 2 -254 -39 -143 -69 -185 -149 -207 -40 -12 -47 -18 -50 -41 -5
-38 14 -57 54 -57 47 0 77 14 124 56 52 47 87 116 106 208 16 76 37 116 81
157 36 35 178 126 276 179 66 36 86 42 137 42 109 0 237 -80 261 -162 5 -19 9
-93 7 -164 -3 -140 1 -130 -69 -161 -53 -23 -79 -51 -79 -85 0 -73 125 -65
190 11 20 24 38 32 90 40 129 21 238 -5 294 -71 41 -50 36 -56 -54 -63 -133
-10 -190 -55 -190 -147 0 -81 54 -130 144 -130 53 0 109 25 147 67 31 33 59
85 59 109 0 14 8 16 63 10 130 -15 180 -71 181 -203 1 -69 -1 -74 -31 -105
-36 -36 -23 -37 -148 16 -100 43 -199 28 -234 -36 -40 -70 39 -128 174 -128
44 0 96 4 115 10 31 9 38 7 70 -18 54 -44 109 -130 122 -193 11 -52 10 -60
-13 -105 -32 -65 -74 -89 -154 -89 -67 1 -161 27 -208 59 -17 12 -41 37 -54
56 -46 74 -81 90 -103 49 -9 -16 -7 -29 11 -65 17 -36 20 -57 16 -99 -8 -74
-40 -145 -66 -145 -14 0 -23 -9 -27 -27 -9 -38 -23 -54 -62 -70 -29 -12 -38
-11 -76 6 -69 30 -158 156 -196 276 -16 52 -27 65 -56 65 -31 0 -64 -49 -64
-94 0 -43 -55 -111 -107 -133 -95 -39 -176 4 -237 126 -46 91 -51 122 -31 208
32 134 -2 272 -64 261 -9 -2 -25 -21 -36 -43 -17 -33 -20 -60 -20 -159 l0
-119 -44 -49 c-79 -88 -194 -125 -242 -77 -18 18 -20 29 -16 73 3 28 9 63 12
77 14 56 -54 80 -83 29 -9 -16 -24 -32 -32 -35 -20 -8 -62 26 -73 61 -12 37
-52 91 -79 105 -15 8 -27 8 -45 0 -21 -10 -23 -16 -21 -70 2 -67 -14 -95 -59
-104 -67 -13 -133 31 -168 109 -20 45 -28 54 -49 54 -20 0 -30 -9 -43 -37 -32
-67 -92 -51 -114 29 -11 42 -55 78 -96 78 -29 0 -36 -14 -39 -80 -3 -69 -25
-124 -67 -168 -55 -58 -118 -80 -131 -46 -15 40 -6 85 23 110 38 32 55 84 48
147 -8 66 -29 97 -67 97 -47 0 -72 -42 -97 -165 -8 -39 -9 -40 -65 -49 -74
-12 -123 11 -157 73 -45 82 -38 264 11 294 10 7 18 17 18 24 0 7 6 13 14 13 7
0 25 11 40 25 30 28 34 69 10 103 -23 33 -57 27 -104 -17 l-41 -39 -59 49
c-118 98 -136 147 -86 233 21 37 32 46 44 40 10 -4 40 -9 68 -12 38 -3 55 1
67 13 23 23 21 38 -8 74 -29 34 -82 55 -118 46 -19 -5 -29 -1 -41 16 -23 33
-20 49 9 49 34 0 80 24 99 52 20 28 21 110 1 147 -8 16 -26 37 -39 47 -29 22
-104 236 -132 374 -20 99 -15 254 10 336 44 142 169 215 248 145z m2678 -58
c81 -84 137 -193 149 -289 8 -65 19 -84 52 -84 45 0 36 130 -15 229 -9 17 -14
31 -11 31 12 0 64 -66 65 -83 0 -9 13 -31 29 -48 23 -24 32 -45 41 -102 6 -40
14 -92 18 -117 6 -39 10 -45 34 -48 39 -5 51 23 39 95 -5 32 -7 60 -6 61 7 8
54 -97 69 -154 9 -32 19 -115 22 -184 7 -141 19 -175 60 -167 32 6 39 -21 31
-128 -10 -136 -68 -283 -133 -334 -43 -34 -50 -28 -50 42 0 82 -35 159 -107
235 -62 65 -77 90 -77 126 0 23 4 26 35 26 28 0 38 5 44 23 5 13 5 30 -1 40
-11 21 -74 51 -89 42 -13 -8 -87 36 -121 72 -15 15 -34 45 -42 65 -16 36 -22
139 -10 151 3 3 26 -10 51 -29 51 -39 87 -44 103 -13 25 46 -42 141 -112 160
-47 12 -86 63 -157 200 -77 150 -80 249 -9 249 27 0 44 -12 98 -67z m-1223
-628 c9 -25 -27 -107 -63 -142 -37 -38 -88 -44 -124 -15 -28 23 -23 55 17 103
47 56 156 90 170 54z m-625 -1500 c22 -19 65 -44 94 -56 l54 -23 0 -45 c0 -59
-31 -210 -66 -319 -21 -66 -37 -95 -69 -129 -23 -23 -49 -43 -58 -43 -21 0
-24 21 -37 240 -6 96 -19 221 -28 277 l-18 103 33 6 c18 3 36 10 39 15 8 14
13 12 56 -26z m-378 -186 c-34 -109 -64 -160 -109 -185 -49 -26 -55 -14 -55
118 l0 106 38 -5 c28 -4 50 2 92 25 30 16 56 28 58 27 1 -1 -9 -40 -24 -86z
m1712 -167 c-12 -76 -58 -218 -81 -252 -26 -37 -80 -76 -88 -63 -2 5 -8 74
-12 156 l-7 147 50 0 c33 0 63 8 93 24 24 14 46 25 48 25 2 1 1 -16 -3 -37z
m399 -117 l74 0 -6 -30 c-18 -97 -67 -268 -91 -315 -25 -49 -72 -93 -86 -79
-4 3 -11 55 -17 115 -5 60 -17 164 -25 231 -8 68 -14 127 -14 133 0 5 21 -5
46 -23 41 -29 53 -32 119 -32z"/>
<path d="M4319 5543 c-16 -42 7 -121 47 -160 25 -26 40 -33 71 -33 42 0 90 27
109 62 18 31 17 43 -2 62 -22 22 -54 20 -81 -6 -32 -30 -58 -15 -58 34 -1 43
-19 68 -51 68 -17 0 -28 -8 -35 -27z"/>
<path d="M4934 5395 c-25 -100 85 -203 177 -165 47 20 75 106 47 142 -30 37
-74 25 -80 -22 -6 -49 -68 -32 -68 19 0 33 -17 51 -47 51 -16 0 -24 -7 -29
-25z"/>
<path d="M4696 5384 c-20 -19 -20 -16 8 -96 l24 -67 -25 -33 c-37 -49 -90
-158 -118 -243 -28 -82 -24 -108 16 -120 28 -9 43 8 64 75 20 65 75 173 108
214 l24 29 27 -74 c15 -40 33 -114 40 -162 13 -85 24 -106 53 -107 6 0 19 7
28 17 14 13 16 27 10 72 -9 83 -41 195 -79 277 -30 64 -32 75 -20 91 34 45 6
96 -68 128 -47 19 -72 19 -92 -1z"/>
</g>
</svg>
